<svg xmlns="http://www.w3.org/2000/svg" version="1.1" xmlns:xlink="http://www.w3.org/1999/xlink" xmlns:svgjs="http://svgjs.dev/svgjs" width="2000" height="1500" viewBox="0 0 2000 1500"><rect width="2000" height="1500" fill="#1f2d5a"></rect><g transform="matrix(0.75,0,0,0.75,249.090909090909,282.7536437246963)"><svg viewBox="0 0 396 247" data-background-color="#1f2d5a" preserveAspectRatio="xMidYMid meet" height="1247" width="2000" xmlns="http://www.w3.org/2000/svg" xmlns:xlink="http://www.w3.org/1999/xlink"><g id="tight-bounds" transform="matrix(1,0,0,1,0.2400000000000091,-0.09999999999999432)"><svg viewBox="0 0 395.52 247.2" height="247.2" width="395.52"><g><svg></svg></g><g><svg viewBox="0 0 395.52 247.2" height="247.2" width="395.52"><g transform="matrix(1,0,0,1,75.54432000000001,80.0250679695917)"><svg viewBox="0 0 244.43135999999996 87.1498640608166" height="87.1498640608166" width="244.43135999999996"><g><svg viewBox="0 0 423.6777035088569 151.05858047999996" height="87.1498640608166" width="244.43135999999996"><g transform="matrix(1,0,0,1,0,15.828678935045353)"><svg viewBox="0 0 244.43135999999996 119.40122260990925" height="119.40122260990925" width="244.43135999999996"><g id="textblocktransform"><svg viewBox="0 0 244.43135999999996 119.40122260990925" height="119.40122260990925" width="244.43135999999996" id="textblock"><g><svg viewBox="0 0 244.43135999999996 119.40122260990925" height="119.40122260990925" width="244.43135999999996"><g transform="matrix(1,0,0,1,0,0)"><svg width="244.43135999999996" viewBox="3.6 -35 71.65 35" height="119.40122260990925" data-palette-color="#fbfbfb"><path d="M6.75 0L3.6 0 3.6-35 7-35 19.85-9.4 32.7-35 36.1-35 36.1 0 32.95 0 32.95-29.2 21.55-6.55 18.15-6.55 6.75-29.2 6.75 0ZM45.9 0L42.75 0 42.75-35 46.15-35 59-9.4 71.85-35 75.25-35 75.25 0 72.1 0 72.1-29.2 60.7-6.55 57.3-6.55 45.9-29.2 45.9 0Z" opacity="1" transform="matrix(1,0,0,1,0,0)" fill="#fbfbfb" class="wordmark-text-0" data-fill-palette-color="primary" id="text-0"></path></svg></g></svg></g></svg></g></svg></g><g transform="matrix(1,0,0,1,272.6191230288569,0)"><svg viewBox="0 0 151.05858047999996 151.05858047999996" height="151.05858047999996" width="151.05858047999996"><g data-palette-color="#2f76db"><rect width="41.28934533119999" height="151.05858047999996" fill="#2f76db" stroke="transparent" data-fill-palette-color="accent" x="0" fill-opacity="1"></rect><rect width="41.28934533119999" height="151.05858047999996" fill="#2f76db" stroke="transparent" data-fill-palette-color="accent" x="50.352860159999985" fill-opacity="0.75"></rect><rect width="41.28934533119999" height="151.05858047999996" fill="#2f76db" stroke="transparent" data-fill-palette-color="accent" x="100.70572031999997" fill-opacity="0.5"></rect></g></svg></g></svg></g></svg></g><path d="M175.71 74.025L175.71 16.905 389.1 16.905 389.1 230.295 175.71 230.295 175.71 173.175 181.923 173.175 181.923 224.083 382.888 224.083 382.888 23.117 181.923 23.117 181.923 74.025Z" fill="#fbfbfb" stroke="transparent" data-fill-palette-color="primary"></path></svg></g><defs></defs></svg><rect width="395.52" height="247.2" fill="none" stroke="none" visibility="hidden"></rect></g></svg></g></svg>