<svg xmlns="http://www.w3.org/2000/svg" version="1.1" xmlns:xlink="http://www.w3.org/1999/xlink" xmlns:svgjs="http://svgjs.dev/svgjs" width="2000" height="1500" viewBox="0 0 2000 1500"><rect width="2000" height="1500" fill="#0c1d36"></rect><g transform="matrix(0.75,0,0,0.75,249.090909090909,282.7536437246963)"><svg viewBox="0 0 396 247" data-background-color="#0c1d36" preserveAspectRatio="xMidYMid meet" height="1247" width="2000" xmlns="http://www.w3.org/2000/svg" xmlns:xlink="http://www.w3.org/1999/xlink"><g id="tight-bounds" transform="matrix(1,0,0,1,0.2400000000000091,-0.09999999999999432)"><svg viewBox="0 0 395.52 247.2" height="247.2" width="395.52"><g><svg></svg></g><g><svg viewBox="0 0 395.52 247.2" height="247.2" width="395.52"><g transform="matrix(1,0,0,1,75.54432,110.03960450197022)"><svg viewBox="0 0 244.43135999999998 27.12079099605957" height="27.12079099605957" width="244.43135999999998"><g><svg viewBox="0 0 280.9259181511438 31.170031175841384" height="27.12079099605957" width="244.43135999999998"><g transform="matrix(1,0,0,1,0,4.307869721118456)"><svg viewBox="0 0 244.43135999999998 22.554291733604472" height="22.554291733604472" width="244.43135999999998"><g id="textblocktransform"><svg viewBox="0 0 244.43135999999998 22.554291733604472" height="22.554291733604472" width="244.43135999999998" id="textblock"><g><svg viewBox="0 0 244.43135999999998 22.554291733604472" height="22.554291733604472" width="244.43135999999998"><g transform="matrix(1,0,0,1,0,0)"><svg width="244.43135999999998" viewBox="1.75 -35.85 393.36 36.300000000000004" height="22.554291733604472" data-palette-color="#f9cc0b"><path d="M21.85 0.45L21.85 0.45 9.8-25.75 10.3-25.75 8.6-8.8Q8.35-6.15 8.55-4.73 8.75-3.3 9.58-2.73 10.4-2.15 11.85-2L11.85-2Q12-1.5 12.05-0.85 12.1-0.2 12.1 0.15L12.1 0.15Q10.9 0.05 9.38 0.03 7.85 0 6.75 0L6.75 0Q6.05 0 5.13 0.03 4.2 0.05 3.33 0.08 2.45 0.1 1.75 0.15L1.75 0.15Q1.75-0.2 1.8-0.85 1.85-1.5 2-2L2-2Q3.35-2.15 4.13-2.68 4.9-3.2 5.35-4.7 5.8-6.2 6.05-9.25L6.05-9.25 7.65-27.05Q7.8-28.85 7.53-29.88 7.25-30.9 6.48-31.35 5.7-31.8 4.3-31.8L4.3-31.8Q4.15-32.3 4.1-32.9 4.05-33.5 4.05-33.95L4.05-33.95Q4.55-33.9 5.2-33.88 5.85-33.85 6.55-33.83 7.25-33.8 7.85-33.8L7.85-33.8Q8.5-33.8 9.13-33.83 9.75-33.85 10.38-33.88 11-33.9 11.65-33.95L11.65-33.95 24.75-5 23.65-5 35.05-33.95Q35.65-33.9 36.3-33.88 36.95-33.85 37.63-33.83 38.3-33.8 38.95-33.8L38.95-33.8Q39.6-33.8 40.23-33.83 40.85-33.85 41.48-33.88 42.1-33.9 42.75-33.95L42.75-33.95Q42.75-33.45 42.7-32.9 42.65-32.35 42.5-31.8L42.5-31.8Q40.75-31.8 39.78-30.78 38.8-29.75 39.1-26.75L39.1-26.75 40.9-8.4Q41.15-5.95 41.55-4.6 41.95-3.25 42.68-2.7 43.4-2.15 44.55-2.05L44.55-2.05Q44.7-1.55 44.75-0.95 44.8-0.35 44.8 0.15L44.8 0.15Q44.2 0.1 43.45 0.08 42.7 0.05 41.88 0.03 41.05 0 40.28 0 39.5 0 38.8 0L38.8 0Q37.9 0 36.8 0.03 35.7 0.05 34.63 0.08 33.55 0.1 32.7 0.15L32.7 0.15Q32.7-0.3 32.77-0.9 32.85-1.5 33-2L33-2Q34.6-2.15 35.33-2.65 36.05-3.15 36.18-4.35 36.3-5.55 36.05-7.75L36.05-7.75 34.15-25.95 34.7-25.95 23.9 0.1Q23.45 0.3 22.95 0.38 22.45 0.45 21.85 0.45ZM63.7 0.45L63.7 0.45Q63.15 0.2 62.82-0.45 62.5-1.1 62.5-2.5L62.5-2.5Q62.5-2.95 62.55-3.58 62.6-4.2 62.75-4.7L62.75-4.7 62.85-4.7Q62.7-3.9 62.17-2.98 61.65-2.05 60.8-1.35L60.8-1.35Q59.95-0.6 58.65-0.13 57.35 0.35 55.5 0.35L55.5 0.35Q52.35 0.35 50.7-1.07 49.05-2.5 49.05-4.95L49.05-4.95Q49.05-6.9 49.97-8.28 50.9-9.65 52.37-10.58 53.85-11.5 55.57-12.05 57.3-12.6 58.95-12.9 60.6-13.2 61.85-13.4L61.85-13.4Q61.85-15.45 61.77-16.6 61.7-17.75 61.47-18.43 61.25-19.1 60.8-19.6L60.8-19.6Q60.2-20.35 59.42-20.73 58.65-21.1 57.7-21.1L57.7-21.1Q56.05-21.1 55.1-20.08 54.15-19.05 53.75-17.7 53.35-16.35 53.3-15.3L53.3-15.3Q52.75-15.3 51.92-15.38 51.1-15.45 50.7-15.65L50.7-15.65Q50.8-16.9 50.75-18.45 50.7-20 50.45-21.1L50.45-21.1Q52.5-22.15 54.77-22.75 57.05-23.35 58.95-23.35L58.95-23.35Q60.8-23.35 62.12-22.83 63.45-22.3 64.25-21.45L64.25-21.45Q65.55-20.2 65.95-18.18 66.35-16.15 66.35-12.8L66.35-12.8 66.35-7.3Q66.35-5.9 66.57-5.08 66.8-4.25 67.45-3.88 68.1-3.5 69.45-3.4L69.45-3.4Q69.45-2.9 69.4-2.27 69.35-1.65 69.15-1.1L69.15-1.1Q67.9-1.05 66.37-0.63 64.85-0.2 63.7 0.45ZM56.9-2.4L56.9-2.4Q58-2.4 59.15-3.13 60.3-3.85 61.07-5.4 61.85-6.95 61.85-9.45L61.85-9.45 61.85-11.35Q60.6-11.2 59.2-10.93 57.8-10.65 56.6-10.1 55.4-9.55 54.65-8.58 53.9-7.6 53.9-5.95L53.9-5.95Q53.9-4.1 54.8-3.25 55.7-2.4 56.9-2.4ZM81.85 0.45L81.85 0.45Q78.9 0.45 77.47-1.07 76.05-2.6 76.05-6L76.05-6 76.05-19.55Q75.3-19.8 74.5-19.98 73.7-20.15 72.45-20.2L72.45-20.2Q72.45-20.85 72.55-21.33 72.65-21.8 72.9-22.4L72.9-22.4 76.05-22.4 76.05-29Q77.05-29.25 78.02-29.8 79-30.35 79.75-31L79.75-31Q80.25-30.8 80.4-30.4 80.55-30 80.55-28.4L80.55-28.4 80.55-22.4 87.05-22.4Q87.05-21.9 86.95-21.33 86.85-20.75 86.6-20.2L86.6-20.2Q84.8-20.15 83.3-19.98 81.8-19.8 80.55-19.55L80.55-19.55 80.55-7.05Q80.55-5.4 80.9-4.33 81.25-3.25 81.9-2.75 82.55-2.25 83.45-2.25L83.45-2.25Q84.5-2.25 85.27-2.55 86.05-2.85 86.75-3.45L86.75-3.45Q87.4-2.7 87.5-1.8L87.5-1.8Q86.7-0.85 85.07-0.2 83.45 0.45 81.85 0.45ZM99.39 0.45L99.39 0.45Q96.44 0.45 95.02-1.07 93.59-2.6 93.59-6L93.59-6 93.59-19.55Q92.84-19.8 92.04-19.98 91.24-20.15 89.99-20.2L89.99-20.2Q89.99-20.85 90.09-21.33 90.19-21.8 90.44-22.4L90.44-22.4 93.59-22.4 93.59-29Q94.59-29.25 95.57-29.8 96.54-30.35 97.29-31L97.29-31Q97.79-30.8 97.94-30.4 98.09-30 98.09-28.4L98.09-28.4 98.09-22.4 104.59-22.4Q104.59-21.9 104.49-21.33 104.39-20.75 104.14-20.2L104.14-20.2Q102.34-20.15 100.84-19.98 99.34-19.8 98.09-19.55L98.09-19.55 98.09-7.05Q98.09-5.4 98.44-4.33 98.79-3.25 99.44-2.75 100.09-2.25 100.99-2.25L100.99-2.25Q102.04-2.25 102.82-2.55 103.59-2.85 104.29-3.45L104.29-3.45Q104.94-2.7 105.04-1.8L105.04-1.8Q104.24-0.85 102.62-0.2 100.99 0.45 99.39 0.45ZM131.34-14.95L131.34-6.35Q131.34-3.75 132.06-2.88 132.79-2 134.29-2L134.29-2Q134.44-1.55 134.49-1.05 134.54-0.55 134.54 0.15L134.54 0.15Q133.44 0.05 132.04 0.03 130.64 0 129.09 0L129.09 0Q128.09 0 126.99 0.03 125.89 0.05 124.92 0.08 123.94 0.1 123.14 0.15L123.14 0.15Q123.14-0.55 123.19-1.07 123.24-1.6 123.39-2L123.39-2Q125.19-2 126.02-2.93 126.84-3.85 126.84-6.35L126.84-6.35 126.84-13.95Q126.84-17.5 125.54-18.78 124.24-20.05 122.19-20.05L122.19-20.05Q120.89-20.05 119.59-19.23 118.29-18.4 117.42-16.57 116.54-14.75 116.54-11.7L116.54-11.7 116.54-6.35Q116.54-3.85 117.29-2.93 118.04-2 119.99-2L119.99-2Q120.14-1.55 120.19-1.05 120.24-0.55 120.24 0.15L120.24 0.15Q119.54 0.1 118.54 0.08 117.54 0.05 116.44 0.03 115.34 0 114.29 0L114.29 0Q113.29 0 112.19 0.03 111.09 0.05 110.09 0.08 109.09 0.1 108.34 0.15L108.34 0.15Q108.34-0.55 108.39-1.07 108.44-1.6 108.59-2L108.59-2Q110.54-2 111.29-2.93 112.04-3.85 112.04-6.35L112.04-6.35 112.04-16.25 116.54-21.15Q116.54-20.55 116.49-19.8 116.44-19.05 116.19-18.2L116.19-18.2Q116.34-18.45 116.49-18.78 116.64-19.1 116.94-19.5L116.94-19.5Q117.79-20.65 119.67-21.88 121.54-23.1 124.19-23.1L124.19-23.1Q126.09-23.1 127.72-22.33 129.34-21.55 130.34-19.78 131.34-18 131.34-14.95L131.34-14.95ZM112.04-26.9L112.04-28.75Q112.04-29.95 111.82-30.73 111.59-31.5 110.79-31.9 109.99-32.3 108.29-32.3L108.29-32.3Q108.29-32.85 108.39-33.3 108.49-33.75 108.74-34.15L108.74-34.15Q109.49-34.15 110.87-34.4 112.24-34.65 113.54-35.05 114.84-35.45 115.44-35.85L115.44-35.85Q115.89-35.7 116.22-35.25 116.54-34.8 116.54-33.85L116.54-33.85 116.54-26.9 112.04-26.9ZM112.04-15.5L112.04-28.75 116.54-28.75 116.54-21.15 112.04-15.5ZM148.94 0.45L148.94 0.45Q145.39 0.45 143.04-1.15 140.69-2.75 139.51-5.48 138.34-8.2 138.34-11.45L138.34-11.45Q138.34-14.65 139.59-17.35 140.84-20.05 143.16-21.7 145.49-23.35 148.69-23.35L148.69-23.35Q151.94-23.35 153.91-21.95 155.89-20.55 156.86-18.2 157.84-15.85 158.04-13L158.04-13Q157.84-12 157.29-11.3L157.29-11.3Q156.44-11.3 154.74-11.3 153.04-11.3 150.89-11.28 148.74-11.25 146.49-11.18 144.24-11.1 142.24-11L142.24-11 142.24-13.55 152.84-13.55Q152.84-16.85 151.64-18.9 150.44-20.95 148.24-20.95L148.24-20.95Q147.04-20.95 145.89-20.23 144.74-19.5 143.99-17.68 143.24-15.85 143.24-12.5L143.24-12.5Q143.24-10.05 143.86-7.73 144.49-5.4 146.06-3.88 147.64-2.35 150.54-2.35L150.54-2.35Q152.19-2.35 153.79-3.1 155.39-3.85 156.64-5.25L156.64-5.25Q157.04-5.05 157.41-4.58 157.79-4.1 157.84-3.7L157.84-3.7Q156.14-1.45 153.91-0.5 151.69 0.45 148.94 0.45ZM170.79 0.45L170.79 0.45Q169.94-1.95 169.11-4.28 168.29-6.6 167.41-8.88 166.54-11.15 165.66-13.4 164.79-15.65 163.89-17.9L163.89-17.9Q163.34-19.3 162.76-19.9 162.19-20.5 161.09-20.85L161.09-20.85Q160.89-21.35 160.84-21.95 160.79-22.55 160.79-23L160.79-23Q161.79-22.95 162.91-22.93 164.04-22.9 165.69-22.9L165.69-22.9Q167.34-22.9 168.64-22.95 169.94-23 171.19-23.05L171.19-23.05Q171.19-22.55 171.14-21.9 171.09-21.25 170.94-20.85L170.94-20.85Q169.54-20.7 168.96-20.35 168.39-20 168.41-19.4 168.44-18.8 168.79-17.85L168.79-17.85Q169.94-14.95 171.19-11.5 172.44-8.05 173.44-5.1L173.44-5.1 172.79-5.05 179.69-22.9Q180.09-23 180.64-23.05 181.19-23.1 181.69-23.1L181.69-23.1Q183.34-19.3 185.31-14.5 187.29-9.7 189.14-4.95L189.14-4.95 188.44-4.95 191.59-14.4Q192.39-16.85 192.31-18.18 192.24-19.5 191.54-20.1 190.84-20.7 189.59-20.85L189.59-20.85Q189.39-21.4 189.26-21.98 189.14-22.55 189.14-23.05L189.14-23.05Q190.09-23 191.29-22.95 192.49-22.9 193.59-22.9L193.59-22.9Q194.94-22.9 196.04-22.95 197.14-23 197.99-23.05L197.99-23.05Q197.99-22.4 197.91-21.9 197.84-21.4 197.59-20.85L197.59-20.85Q196.84-20.65 196.31-20.13 195.79-19.6 195.26-18.3 194.74-17 193.89-14.55L193.89-14.55 188.84 0Q188.54 0.15 188.19 0.25 187.84 0.35 187.44 0.4 187.04 0.45 186.54 0.45L186.54 0.45Q185.39-2.55 184.06-5.73 182.74-8.9 181.44-12 180.14-15.1 178.89-17.85L178.89-17.85 180.44-18.7 172.99 0Q172.74 0.15 172.44 0.25 172.14 0.35 171.74 0.4 171.34 0.45 170.79 0.45ZM230.58 0.45L230.58 0.45 218.53-25.75 219.03-25.75 217.33-8.8Q217.08-6.15 217.28-4.73 217.48-3.3 218.31-2.73 219.13-2.15 220.58-2L220.58-2Q220.73-1.5 220.78-0.85 220.83-0.2 220.83 0.15L220.83 0.15Q219.63 0.05 218.11 0.03 216.58 0 215.48 0L215.48 0Q214.78 0 213.86 0.03 212.93 0.05 212.06 0.08 211.18 0.1 210.48 0.15L210.48 0.15Q210.48-0.2 210.53-0.85 210.58-1.5 210.73-2L210.73-2Q212.08-2.15 212.86-2.68 213.63-3.2 214.08-4.7 214.53-6.2 214.78-9.25L214.78-9.25 216.38-27.05Q216.53-28.85 216.26-29.88 215.98-30.9 215.21-31.35 214.43-31.8 213.03-31.8L213.03-31.8Q212.88-32.3 212.83-32.9 212.78-33.5 212.78-33.95L212.78-33.95Q213.28-33.9 213.93-33.88 214.58-33.85 215.28-33.83 215.98-33.8 216.58-33.8L216.58-33.8Q217.23-33.8 217.86-33.83 218.48-33.85 219.11-33.88 219.73-33.9 220.38-33.95L220.38-33.95 233.48-5 232.38-5 243.78-33.95Q244.38-33.9 245.03-33.88 245.68-33.85 246.36-33.83 247.03-33.8 247.68-33.8L247.68-33.8Q248.33-33.8 248.96-33.83 249.58-33.85 250.21-33.88 250.83-33.9 251.48-33.95L251.48-33.95Q251.48-33.45 251.43-32.9 251.38-32.35 251.23-31.8L251.23-31.8Q249.48-31.8 248.51-30.78 247.53-29.75 247.83-26.75L247.83-26.75 249.63-8.4Q249.88-5.95 250.28-4.6 250.68-3.25 251.41-2.7 252.13-2.15 253.28-2.05L253.28-2.05Q253.43-1.55 253.48-0.95 253.53-0.35 253.53 0.15L253.53 0.15Q252.93 0.1 252.18 0.08 251.43 0.05 250.61 0.03 249.78 0 249.01 0 248.23 0 247.53 0L247.53 0Q246.63 0 245.53 0.03 244.43 0.05 243.36 0.08 242.28 0.1 241.43 0.15L241.43 0.15Q241.43-0.3 241.51-0.9 241.58-1.5 241.73-2L241.73-2Q243.33-2.15 244.06-2.65 244.78-3.15 244.91-4.35 245.03-5.55 244.78-7.75L244.78-7.75 242.88-25.95 243.43-25.95 232.63 0.1Q232.18 0.3 231.68 0.38 231.18 0.45 230.58 0.45ZM266.53 0.2L266.53 0.2Q263.18 0.2 261.28-1.75 259.38-3.7 259.38-8.7L259.38-8.7 259.38-16.25Q259.38-18 258.88-18.88 258.38-19.75 256.08-19.8L256.08-19.8Q256.08-20.35 256.15-20.78 256.23-21.2 256.43-21.65L256.43-21.65Q257.98-21.75 259.8-22.25 261.63-22.75 262.78-23.35L262.78-23.35Q263.23-23.2 263.55-22.73 263.88-22.25 263.88-21.15L263.88-21.15 263.88-9.8Q263.88-6.45 264.8-4.65 265.73-2.85 268.03-2.85L268.03-2.85Q270.53-2.85 272.2-4.95 273.88-7.05 273.88-11.4L273.88-11.4 273.88-16.5Q273.88-18.25 273.25-19.13 272.63-20 270.13-20.05L270.13-20.05Q270.13-20.6 270.18-21.03 270.23-21.45 270.48-21.9L270.48-21.9Q272.43-22 274.3-22.43 276.18-22.85 277.28-23.35L277.28-23.35Q277.73-23.2 278.05-22.73 278.38-22.25 278.38-21.15L278.38-21.15 278.38-6.65 274.48-4.8Q274.23-4.15 273.78-3.53 273.33-2.9 272.78-2.35L272.78-2.35Q271.48-1.05 270.03-0.43 268.58 0.2 266.53 0.2ZM275.48 0.45L275.48 0.45Q274.98 0.2 274.6-0.28 274.23-0.75 274.23-2.45L274.23-2.45Q274.23-3 274.3-4 274.38-5 274.73-6.8L274.73-6.8 278.38-6.8Q278.38-5.65 278.58-4.88 278.78-4.1 279.45-3.75 280.13-3.4 281.48-3.4L281.48-3.4Q281.48-2.9 281.43-2.27 281.38-1.65 281.18-1.1L281.18-1.1Q279.93-1.05 278.28-0.63 276.63-0.2 275.48 0.45ZM293.53-11.35L293.53-7.35Q293.53-5.2 293.98-4.08 294.43-2.95 295.43-2.53 296.43-2.1 297.98-2L297.98-2Q298.13-1.6 298.18-1.07 298.23-0.55 298.23 0.15L298.23 0.15Q297.48 0.1 296.45 0.08 295.43 0.05 294.28 0.03 293.13 0 291.93 0L291.93 0Q290.18 0 288.25 0.03 286.33 0.05 285.33 0.15L285.33 0.15Q285.33-0.55 285.38-1.07 285.43-1.6 285.58-2L285.58-2Q286.93-2.1 287.68-2.48 288.43-2.85 288.73-3.78 289.03-4.7 289.03-6.35L289.03-6.35 289.03-11.35 293.53-11.35ZM292.68-15.35L293.53-14.65 293.53-10.7 289.03-10.7 289.03-16.25 293.53-21.15Q293.53-19.45 293.23-18.07 292.93-16.7 292.68-15.35L292.68-15.35ZM293.53-12.15L292.43-15.05Q292.98-16.45 293.28-17.35 293.58-18.25 293.93-18.85L293.93-18.85Q295.03-20.6 296.53-21.75 298.03-22.9 299.98-22.9L299.98-22.9Q301.88-22.9 303.43-21.7L303.43-21.7Q303.33-20.9 303.23-19.85 303.13-18.8 303.1-17.75 303.08-16.7 303.08-15.8L303.08-15.8Q302.63-15.65 301.85-15.5 301.08-15.35 300.23-15.35L300.23-15.35Q300.13-17.75 299.45-18.5 298.78-19.25 297.78-19.25L297.78-19.25Q296.93-19.25 295.93-18.28 294.93-17.3 294.23-15.7 293.53-14.1 293.53-12.15L293.53-12.15ZM293.53-21.15L289.03-10.7 289.03-16.25Q289.03-17.45 288.78-18.2 288.53-18.95 287.73-19.35 286.93-19.75 285.28-19.8L285.28-19.8Q285.28-20.35 285.38-20.8 285.48-21.25 285.73-21.65L285.73-21.65Q287.28-21.75 289.28-22.25 291.28-22.75 292.43-23.35L292.43-23.35Q292.88-23.2 293.2-22.73 293.53-22.25 293.53-21.15L293.53-21.15ZM306.27 0.15L306.27 0.15Q306.27-0.35 306.32-0.93 306.37-1.5 306.52-2L306.52-2Q308.52-2 309.25-2.93 309.97-3.85 309.97-6.35L309.97-6.35 309.97-16.25Q309.97-17.45 309.75-18.23 309.52-19 308.72-19.4 307.92-19.8 306.22-19.8L306.22-19.8Q306.22-20.35 306.32-20.8 306.42-21.25 306.67-21.65L306.67-21.65Q307.42-21.65 308.8-21.9 310.17-22.15 311.47-22.55 312.77-22.95 313.37-23.35L313.37-23.35Q313.82-23.2 314.15-22.75 314.47-22.3 314.47-21.35L314.47-21.35 314.47-6.35Q314.47-3.85 315.15-2.93 315.82-2 317.42-2L317.42-2Q317.57-1.5 317.62-0.85 317.67-0.2 317.67 0.15L317.67 0.15Q316.82 0.1 315.87 0.08 314.92 0.05 313.95 0.03 312.97 0 312.02 0L312.02 0Q311.07 0 310.05 0.03 309.02 0.05 308.07 0.08 307.12 0.1 306.27 0.15ZM311.82-29L311.82-29Q310.57-29 309.72-29.85 308.87-30.7 308.87-31.9L308.87-31.9Q308.87-33.25 309.77-34.1 310.67-34.95 311.82-34.95L311.82-34.95Q313.17-34.95 314-34.1 314.82-33.25 314.82-31.9L314.82-31.9Q314.82-30.75 313.95-29.88 313.07-29 311.82-29ZM321.32 0.15L321.32 0.15Q321.32-0.35 321.37-0.93 321.42-1.5 321.57-2L321.57-2Q323.57-2 324.3-2.93 325.02-3.85 325.02-6.35L325.02-6.35 325.02-16.25Q325.02-17.45 324.8-18.23 324.57-19 323.77-19.4 322.97-19.8 321.27-19.8L321.27-19.8Q321.27-20.35 321.37-20.8 321.47-21.25 321.72-21.65L321.72-21.65Q322.47-21.65 323.85-21.9 325.22-22.15 326.52-22.55 327.82-22.95 328.42-23.35L328.42-23.35Q328.87-23.2 329.2-22.75 329.52-22.3 329.52-21.35L329.52-21.35 329.52-6.35Q329.52-3.85 330.2-2.93 330.87-2 332.47-2L332.47-2Q332.62-1.5 332.67-0.85 332.72-0.2 332.72 0.15L332.72 0.15Q331.87 0.1 330.92 0.08 329.97 0.05 329 0.03 328.02 0 327.07 0L327.07 0Q326.12 0 325.1 0.03 324.07 0.05 323.12 0.08 322.17 0.1 321.32 0.15ZM326.87-29L326.87-29Q325.62-29 324.77-29.85 323.92-30.7 323.92-31.9L323.92-31.9Q323.92-33.25 324.82-34.1 325.72-34.95 326.87-34.95L326.87-34.95Q328.22-34.95 329.05-34.1 329.87-33.25 329.87-31.9L329.87-31.9Q329.87-30.75 329-29.88 328.12-29 326.87-29ZM344.92 0.45L344.92 0.45Q341.97 0.45 340.54-1.07 339.12-2.6 339.12-6L339.12-6 339.12-19.55Q338.37-19.8 337.57-19.98 336.77-20.15 335.52-20.2L335.52-20.2Q335.52-20.85 335.62-21.33 335.72-21.8 335.97-22.4L335.97-22.4 339.12-22.4 339.12-29Q340.12-29.25 341.09-29.8 342.07-30.35 342.82-31L342.82-31Q343.32-30.8 343.47-30.4 343.62-30 343.62-28.4L343.62-28.4 343.62-22.4 350.12-22.4Q350.12-21.9 350.02-21.33 349.92-20.75 349.67-20.2L349.67-20.2Q347.87-20.15 346.37-19.98 344.87-19.8 343.62-19.55L343.62-19.55 343.62-7.05Q343.62-5.4 343.97-4.33 344.32-3.25 344.97-2.75 345.62-2.25 346.52-2.25L346.52-2.25Q347.57-2.25 348.34-2.55 349.12-2.85 349.82-3.45L349.82-3.45Q350.47-2.7 350.57-1.8L350.57-1.8Q349.77-0.85 348.14-0.2 346.52 0.45 344.92 0.45ZM376.87-14.95L376.87-6.35Q376.87-3.75 377.59-2.88 378.32-2 379.82-2L379.82-2Q379.97-1.55 380.02-1.05 380.07-0.55 380.07 0.15L380.07 0.15Q378.97 0.05 377.57 0.03 376.17 0 374.62 0L374.62 0Q373.62 0 372.52 0.03 371.42 0.05 370.44 0.08 369.47 0.1 368.67 0.15L368.67 0.15Q368.67-0.55 368.72-1.07 368.77-1.6 368.92-2L368.92-2Q370.72-2 371.54-2.93 372.37-3.85 372.37-6.35L372.37-6.35 372.37-13.95Q372.37-17.5 371.07-18.78 369.77-20.05 367.72-20.05L367.72-20.05Q366.42-20.05 365.12-19.23 363.82-18.4 362.94-16.57 362.07-14.75 362.07-11.7L362.07-11.7 362.07-6.35Q362.07-3.85 362.82-2.93 363.57-2 365.52-2L365.52-2Q365.67-1.55 365.72-1.05 365.77-0.55 365.77 0.15L365.77 0.15Q365.07 0.1 364.07 0.08 363.07 0.05 361.97 0.03 360.87 0 359.82 0L359.82 0Q358.82 0 357.72 0.03 356.62 0.05 355.62 0.08 354.62 0.1 353.87 0.15L353.87 0.15Q353.87-0.55 353.92-1.07 353.97-1.6 354.12-2L354.12-2Q356.07-2 356.82-2.93 357.57-3.85 357.57-6.35L357.57-6.35 357.57-16.25 362.07-21.15Q362.07-20.55 362.02-19.8 361.97-19.05 361.72-18.2L361.72-18.2Q361.87-18.45 362.02-18.78 362.17-19.1 362.47-19.5L362.47-19.5Q363.32-20.65 365.19-21.88 367.07-23.1 369.72-23.1L369.72-23.1Q371.62-23.1 373.24-22.33 374.87-21.55 375.87-19.78 376.87-18 376.87-14.95L376.87-14.95ZM357.57-26.9L357.57-28.75Q357.57-29.95 357.34-30.73 357.12-31.5 356.32-31.9 355.52-32.3 353.82-32.3L353.82-32.3Q353.82-32.85 353.92-33.3 354.02-33.75 354.27-34.15L354.27-34.15Q355.02-34.15 356.39-34.4 357.77-34.65 359.07-35.05 360.37-35.45 360.97-35.85L360.97-35.85Q361.42-35.7 361.74-35.25 362.07-34.8 362.07-33.85L362.07-33.85 362.07-26.9 357.57-26.9ZM357.57-15.5L357.57-28.75 362.07-28.75 362.07-21.15 357.57-15.5ZM383.71 0.15L383.71 0.15Q383.71-0.35 383.76-0.93 383.81-1.5 383.96-2L383.96-2Q385.96-2 386.69-2.93 387.41-3.85 387.41-6.35L387.41-6.35 387.41-16.25Q387.41-17.45 387.19-18.23 386.96-19 386.16-19.4 385.36-19.8 383.66-19.8L383.66-19.8Q383.66-20.35 383.76-20.8 383.86-21.25 384.11-21.65L384.11-21.65Q384.86-21.65 386.24-21.9 387.61-22.15 388.91-22.55 390.21-22.95 390.81-23.35L390.81-23.35Q391.26-23.2 391.59-22.75 391.91-22.3 391.91-21.35L391.91-21.35 391.91-6.35Q391.91-3.85 392.59-2.93 393.26-2 394.86-2L394.86-2Q395.01-1.5 395.06-0.85 395.11-0.2 395.11 0.15L395.11 0.15Q394.26 0.1 393.31 0.08 392.36 0.05 391.39 0.03 390.41 0 389.46 0L389.46 0Q388.51 0 387.49 0.03 386.46 0.05 385.51 0.08 384.56 0.1 383.71 0.15ZM389.26-29L389.26-29Q388.01-29 387.16-29.85 386.31-30.7 386.31-31.9L386.31-31.9Q386.31-33.25 387.21-34.1 388.11-34.95 389.26-34.95L389.26-34.95Q390.61-34.95 391.44-34.1 392.26-33.25 392.26-31.9L392.26-31.9Q392.26-30.75 391.39-29.88 390.51-29 389.26-29Z" opacity="1" transform="matrix(1,0,0,1,0,0)" fill="#f9cc0b" class="wordmark-text-0" data-fill-palette-color="primary" id="text-0"></path></svg></g></svg></g></svg></g></svg></g><g transform="matrix(1,0,0,1,249.7558869753024,0)"><svg viewBox="0 0 31.170031175841384 31.170031175841384" height="31.170031175841384" width="31.170031175841384"><g data-palette-color="#f9f9f9"><rect width="8.519808521396646" height="31.170031175841384" fill="#f9f9f9" stroke="transparent" data-fill-palette-color="accent" x="0" fill-opacity="1"></rect><rect width="8.519808521396646" height="31.170031175841384" fill="#f9f9f9" stroke="transparent" data-fill-palette-color="accent" x="10.39001039194713" fill-opacity="0.75"></rect><rect width="8.519808521396646" height="31.170031175841384" fill="#f9f9f9" stroke="transparent" data-fill-palette-color="accent" x="20.78002078389426" fill-opacity="0.5"></rect></g></svg></g></svg></g></svg></g><path d="M221.346 104.04L221.346 38.035 392.477 38.035 392.477 209.165 221.346 209.165 221.346 143.16 223.116 143.16 223.116 207.395 390.707 207.395 390.707 39.805 223.116 39.805 223.116 104.04Z" fill="#f9cc0b" stroke="transparent" data-fill-palette-color="primary"></path></svg></g><defs></defs></svg><rect width="395.52" height="247.2" fill="none" stroke="none" visibility="hidden"></rect></g></svg></g></svg>